      <svg width="109" height="80" viewBox="0 0 109 80" fill="none" xmlns="http://www.w3.org/2000/svg">
        <g clip-path="url(#clip0_59_15)">
        <path d="M78.8816 27.4197V77.1064C78.8816 78.2203 77.9793 79.1318 76.8562 79.1318H2.073C0.959036 79.1318 0.0476074 78.2296 0.0476074 77.1064V27.4197C0.0476074 26.6188 0.526338 25.873 1.26285 25.56C15.1921 19.5667 27.2432 19.981 39.4692 24.8143C53.3155 19.3457 65.3574 20.2756 77.6663 25.56C78.4028 25.8823 78.8816 26.6188 78.8816 27.4197Z" fill="#393F4E"/>
        <path d="M74.84 75.0808C63.8384 70.5237 51.4742 70.5237 40.4727 75.0808V26.5634C51.4742 22.0062 63.8384 22.0062 74.84 26.5634V75.0808Z" fill="white"/>
        <path d="M71.1299 32.2899C62.3655 29.5372 52.9566 29.5372 44.1921 32.2899V30.2645C52.9566 27.5118 62.3655 27.5118 71.1299 30.2645V32.2899Z" fill="#D5CBB6"/>
        <path d="M71.1299 38.3568C62.3655 35.6041 52.9566 35.6041 44.1921 38.3568V36.3314C52.9566 33.5787 62.3655 33.5787 71.1299 36.3314V38.3568Z" fill="#D5CBB6"/>
        <path d="M71.1299 44.4239C62.3655 41.6712 52.9566 41.6712 44.1921 44.4239V42.3985C52.9566 39.6458 62.3655 39.6458 71.1299 42.3985V44.4239Z" fill="#D5CBB6"/>
        <path d="M71.1299 50.4815C62.3655 47.7288 52.9566 47.7288 44.1921 50.4815V48.4561C52.9566 45.7034 62.3655 45.7034 71.1299 48.4561V50.4815Z" fill="#D5CBB6"/>
        <path d="M71.1299 56.5487C62.3655 53.796 52.9566 53.796 44.1921 56.5487V54.5233C52.9566 51.7706 62.3655 51.7706 71.1299 54.5233V56.5487Z" fill="#D5CBB6"/>
        <path d="M71.1299 62.6156C62.3655 59.8629 52.9566 59.8629 44.1921 62.6156V60.5902C52.9566 57.8375 62.3655 57.8375 71.1299 60.5902V62.6156Z" fill="#D5CBB6"/>
        <path d="M71.1299 68.6824C62.3655 65.9297 52.9566 65.9297 44.1921 68.6824V66.6571C52.9566 63.9044 62.3655 63.9044 71.1299 66.6571V68.6824Z" fill="#D5CBB6"/>
        <path d="M38.4564 75.0808C27.4548 70.5237 15.0907 70.5237 4.08911 75.0808V26.5634C15.0907 22.0062 27.4548 22.0062 38.4564 26.5634V75.0808Z" fill="white"/>
        <path d="M34.7371 32.2899C25.9726 29.5372 16.5638 29.5372 7.79932 32.2899V30.2645C16.5638 27.5118 25.9726 27.5118 34.7371 30.2645V32.2899Z" fill="#D5CBB6"/>
        <path d="M34.7371 38.3568C25.9726 35.6041 16.5638 35.6041 7.79932 38.3568V36.3314C16.5638 33.5787 25.9726 33.5787 34.7371 36.3314V38.3568Z" fill="#D5CBB6"/>
        <path d="M34.7371 44.4239C25.9726 41.6712 16.5638 41.6712 7.79932 44.4239V42.3985C16.5638 39.6458 25.9726 39.6458 34.7371 42.3985V44.4239Z" fill="#D5CBB6"/>
        <path d="M34.7371 50.4815C25.9726 47.7288 16.5638 47.7288 7.79932 50.4815V48.4561C16.5638 45.7034 25.9726 45.7034 34.7371 48.4561V50.4815Z" fill="#D5CBB6"/>
        <path d="M34.7371 56.5487C25.9726 53.796 16.5638 53.796 7.79932 56.5487V54.5233C16.5638 51.7706 25.9726 51.7706 34.7371 54.5233V56.5487Z" fill="#D5CBB6"/>
        <path d="M34.7371 62.6156C25.9726 59.8629 16.5638 59.8629 7.79932 62.6156V60.5902C16.5638 57.8375 25.9726 57.8375 34.7371 60.5902V62.6156Z" fill="#D5CBB6"/>
        <path d="M34.7371 68.6824C25.9726 65.9297 16.5638 65.9297 7.79932 68.6824V66.6571C16.5638 63.9044 25.9726 63.9044 34.7371 66.6571V68.6824Z" fill="#D5CBB6"/>
        <path d="M97.6718 0.0951438H84.8013C78.9461 0.0951438 74.2048 4.83641 74.2048 10.6917C74.2048 16.5469 78.9461 21.2882 84.8013 21.2882H94.9283C96.4382 21.2882 96.9169 21.9878 96.9169 22.5678C96.9169 23.4148 96.475 24.2158 95.4071 24.9799C94.7442 25.4494 95.269 25.8269 95.7845 25.8269C102.551 25.8269 108.278 18.4434 108.278 10.6824C108.278 4.82721 103.536 0.0859375 97.681 0.0859375L97.6718 0.0951438Z" fill="#393F4E"/>
        <path d="M83.1993 12.7079C82.0853 12.7079 81.1831 11.8057 81.1831 10.6917C81.1831 9.57776 82.0853 8.67554 83.1993 8.67554C84.3133 8.67554 85.2063 9.57776 85.2063 10.6917C85.2063 11.8057 84.3041 12.7079 83.1993 12.7079Z" fill="white"/>
        <path d="M91.2457 12.7079C90.1317 12.7079 89.2295 11.8057 89.2295 10.6917C89.2295 9.57776 90.1317 8.67554 91.2457 8.67554C92.3596 8.67554 93.2619 9.57776 93.2619 10.6917C93.2619 11.8057 92.3596 12.7079 91.2457 12.7079Z" fill="white"/>
        <path d="M99.2921 12.7079C98.1782 12.7079 97.2852 11.8057 97.2852 10.6917C97.2852 9.57776 98.1874 8.67554 99.2921 8.67554C100.397 8.67554 101.308 9.57776 101.308 10.6917C101.308 11.8057 100.406 12.7079 99.2921 12.7079Z" fill="white"/>
        </g>
        <defs>
        <clipPath id="clip0_59_15">
        <rect width="108.23" height="79.0273" fill="white" transform="translate(0.0476074 0.0952148)"/>
        </clipPath>
        </defs>
        </svg>