<svg width="155" height="32" viewBox="0 0 155 32" fill="none" xmlns="http://www.w3.org/2000/svg">
<g clip-path="url(#clip0_1248_3525)">
<path d="M4.44523 0.54303C4.44523 0.663704 4.28788 0.92229 3.97319 1.31879C2.50461 3.11596 1.70477 5.30101 1.70477 7.47313C1.70477 9.64525 2.5964 12.0372 4.20921 13.9119C4.37967 14.0929 4.44523 14.2352 4.44523 14.3903C4.44523 14.6747 4.1961 14.9204 3.92074 14.9204C3.55359 14.9204 3.04222 14.5196 2.37349 13.7438C0.931143 12.0242 -0.0129395 9.55475 -0.0129395 7.4602C0.000172804 5.12 1.2065 2.26263 2.89798 0.633535C3.37002 0.18101 3.6716 0 3.93385 0C4.22232 0 4.45834 0.245657 4.45834 0.54303H4.44523Z" fill="#231815"/>
<path d="M9.0999 3.3228V0.71108C9.0999 0.374919 9.41459 0.116333 9.87352 0.116333C10.3324 0.116333 10.6603 0.36199 10.6603 0.71108V3.30987H11.8928C12.2206 3.30987 12.4566 3.6331 12.4566 4.08563C12.4566 4.53815 12.2337 4.86138 11.8928 4.86138H10.6603V7.56361H10.7127L10.8045 7.51189L11.1847 7.34381C11.2765 7.31795 11.3945 7.26623 11.4863 7.21451C11.6437 7.13694 11.801 7.11108 11.9453 7.11108C12.3386 7.11108 12.6664 7.4731 12.6664 7.89977C12.6664 7.95148 12.6664 7.97734 12.6533 8.04199H17.4786V6.54219H12.4829C12.1419 6.54219 11.9059 6.24482 11.9059 5.81815C11.9059 5.39148 12.1419 5.09411 12.4829 5.09411H15.6429V3.51674H13.1254C12.7844 3.51674 12.5484 3.23229 12.5484 2.80563C12.5484 2.37896 12.7844 2.09451 13.1254 2.09451H15.6429V0.685222C15.6429 0.34906 15.9707 0.116333 16.4559 0.116333C16.9148 0.116333 17.2426 0.34906 17.2426 0.685222V2.08159H19.97C20.3109 2.08159 20.5338 2.37896 20.5338 2.7927C20.5338 3.20643 20.3109 3.50381 19.97 3.50381H17.2426V5.08118H20.6387C20.9665 5.08118 21.2025 5.37855 21.2025 5.80522C21.2025 6.23189 20.9796 6.52926 20.6387 6.52926H19.0652V8.02906H20.4682C20.796 8.02906 21.0321 8.32643 21.0321 8.7531C21.0321 9.17977 20.796 9.47714 20.4682 9.47714H19.0652V13.162C19.0652 14.3515 18.6587 14.7006 17.2557 14.7006C16.7837 14.7006 15.9183 14.623 15.6691 14.5584C15.2889 14.4678 15.1053 14.2351 15.1053 13.8731C15.1053 13.4076 15.4069 13.0973 15.8396 13.0973C15.9052 13.0973 15.9314 13.0973 16.1018 13.1232C16.3903 13.1491 16.7312 13.1878 16.9935 13.1878C17.3606 13.1878 17.4655 13.0844 17.4655 12.7224V9.46421H12.6795C12.3386 9.46421 12.1157 9.16684 12.1157 8.74017C12.1157 8.67552 12.1157 8.63674 12.1288 8.55916C11.8272 8.70138 11.0405 9.03755 10.6471 9.17977V14.1705C10.6471 14.5325 10.3324 14.7782 9.86041 14.7782C9.38837 14.7782 9.08678 14.5325 9.08678 14.1705V9.74866L9.00811 9.77451C7.73622 10.1883 7.14617 10.3693 6.9626 10.3693C6.55612 10.3693 6.20209 9.98138 6.20209 9.51593C6.20209 9.21856 6.35943 8.98583 6.6479 8.86946C6.72658 8.81775 6.80525 8.80482 7.10683 8.71431C7.65755 8.55916 7.71 8.54623 8.6803 8.23593L9.08678 8.10664V4.83553H7.99847C7.90668 5.48199 7.76245 6.28361 7.63132 6.78785C7.55265 7.14987 7.30352 7.34381 6.94949 7.34381C6.54301 7.34381 6.25454 7.08522 6.25454 6.69734C6.25454 6.63701 6.32447 6.27068 6.46433 5.59835C6.70035 4.53815 6.8577 3.24522 6.92326 1.84886C6.92326 1.37047 7.13306 1.15068 7.55265 1.15068C8.01158 1.15068 8.23449 1.35755 8.23449 1.79714C8.23449 2.19795 8.22137 2.36603 8.15581 3.28401H9.08678L9.0999 3.3228ZM15.1971 10.7701C15.6823 11.4165 15.9314 11.9078 15.9314 12.1664C15.9314 12.5543 15.5511 12.8775 15.0791 12.8775C14.7775 12.8775 14.6333 12.8 14.4235 12.425C13.9645 11.7398 13.781 11.4812 13.3352 10.8994C13.204 10.7313 13.1516 10.5891 13.1516 10.421C13.1516 10.046 13.545 9.7228 14.0039 9.7228C14.371 9.7228 14.5021 9.85209 15.1971 10.7571V10.7701Z" fill="#231815"/>
<path d="M30.2893 12.7741C30.8663 12.8646 31.3908 12.9034 31.9546 12.9034H36.2161C36.6094 12.9034 36.8979 13.2396 36.8979 13.6921C36.8979 14.1446 36.6094 14.4679 36.2161 14.4679H31.9284C28.9257 14.4161 26.7752 13.5369 25.3329 11.8174C25.0051 12.5285 24.5986 13.2137 24.1003 13.8473C23.5627 14.5454 23.3923 14.6877 22.9989 14.6877C22.54 14.6877 22.1204 14.2868 22.1204 13.8343C22.1204 13.6016 22.186 13.4723 22.4482 13.1361C23.6152 11.6105 24.179 10.421 24.756 8.24887C24.9002 7.71877 25.1231 7.52483 25.5165 7.52483C26.0672 7.52483 26.4474 7.84806 26.4474 8.30059C26.4474 8.58503 26.1983 9.55473 25.9229 10.3434C26.631 11.2873 27.5095 11.9596 28.611 12.3604V6.47756H24.874C24.533 6.47756 24.297 6.18018 24.297 5.75351C24.297 5.32685 24.533 5.02947 24.874 5.02947H34.0001C34.3279 5.02947 34.577 5.33978 34.577 5.75351C34.577 6.16725 34.341 6.47756 34.0001 6.47756H30.2893V8.61089H34.7344C35.0622 8.61089 35.2982 8.93412 35.2982 9.36079C35.2982 9.78745 35.0622 10.0719 34.7344 10.0719H30.2893V12.7741ZM34.9311 1.78422C35.8489 1.78422 36.2947 2.23675 36.2947 3.12887V4.86139C36.2947 5.22341 35.9538 5.46907 35.4556 5.46907C34.9573 5.46907 34.6426 5.22341 34.6426 4.86139V3.56846C34.6426 3.34867 34.4984 3.20644 34.2755 3.20644H24.5593C24.3364 3.20644 24.2184 3.34867 24.2184 3.56846V4.87432C24.2184 5.23634 23.8774 5.482 23.3792 5.482C22.8809 5.482 22.5662 5.23634 22.5662 4.87432V3.11594C22.5662 2.21089 23.0251 1.77129 23.9299 1.77129H28.5061V0.762808C28.5061 0.387858 28.8732 0.129272 29.3715 0.129272C29.8697 0.129272 30.2369 0.413717 30.2369 0.762808V1.77129H34.918L34.9311 1.78422Z" fill="#231815"/>
<path d="M40.7398 1.17657C42.2083 2.88323 43.1393 5.36566 43.1393 7.4602C43.1393 9.8004 41.933 12.6578 40.2415 14.2739C39.7695 14.7394 39.4679 14.9204 39.2056 14.9204C38.9434 14.9204 38.6812 14.6747 38.6812 14.3903C38.6812 14.2524 38.8385 13.9895 39.1532 13.6016C40.6218 11.8044 41.4216 9.61939 41.4216 7.4602C41.4216 5.17172 40.6087 3.05131 38.9172 1.00848C38.7467 0.801616 38.6812 0.685252 38.6812 0.530101C38.6812 0.245657 38.9303 0 39.2188 0C39.5597 0 40.0842 0.400808 40.7267 1.17657H40.7398Z" fill="#231815"/>
<path d="M54.2716 14.5972C51.4132 14.5972 49.6955 14.0801 48.5154 12.8647C48.0302 13.4336 47.3615 14.1318 47.0074 14.4291C46.7452 14.6619 46.5616 14.7394 46.3256 14.7394C45.906 14.7394 45.4864 14.3386 45.4864 13.899C45.4864 13.6146 45.5651 13.4982 45.9585 13.2009C46.4436 12.8259 47.0468 12.2958 47.5844 11.7528V8.06793C47.5844 7.84813 47.4795 7.7447 47.2566 7.7447H46.1289C45.7487 7.7447 45.4864 7.43439 45.4864 6.9948C45.4864 6.5552 45.7487 6.20611 46.1289 6.20611H47.9253C48.7251 6.20611 49.1579 6.61985 49.1579 7.42146V11.6881C50.0888 12.619 51.8459 13.1104 54.2323 13.1104H59.9361C60.3033 13.1104 60.5786 13.4336 60.5786 13.8603C60.5786 14.2869 60.3164 14.6102 59.9361 14.6102H54.2716V14.5972ZM47.9515 1.29298C48.8694 2.22389 49.1972 2.68934 49.1972 3.02551C49.1972 3.4651 48.7776 3.85298 48.2793 3.85298C47.9646 3.85298 47.8335 3.7754 47.5582 3.38753C47.1648 2.85742 46.6796 2.28854 46.1551 1.75843C45.9454 1.53864 45.8929 1.42227 45.8929 1.2154C45.8929 0.801667 46.2994 0.413788 46.7321 0.413788C47.073 0.413788 47.2041 0.504293 47.9646 1.29298H47.9515ZM59.9361 11.1968C59.9361 12.2182 59.6345 12.438 58.2315 12.438C57.1563 12.438 56.8285 12.2699 56.8285 11.714C56.8285 11.6364 56.8285 11.5718 56.8547 11.4683C56.7761 11.4813 56.7499 11.4813 56.6712 11.4813H53.5111C52.908 11.4813 52.6195 11.1839 52.6195 10.5762V8.99884C52.6195 8.39116 52.9211 8.08086 53.5111 8.08086H54.429V7.20167H52.5146C52.2786 7.20167 52.095 6.95601 52.095 6.64571C52.095 6.3354 52.2786 6.07682 52.5146 6.07682H54.429V5.17177H52.1737C51.9245 5.17177 51.8065 5.30106 51.8065 5.54672V11.9079C51.8065 12.2312 51.4918 12.4639 51.046 12.4639C50.6002 12.4639 50.3117 12.2441 50.3117 11.9079V5.15884C50.3117 4.37015 50.7051 3.98227 51.5049 3.98227H52.5277C52.3441 3.43924 52.1474 2.98672 51.9639 2.59884L51.9377 2.52126H50.338C50.0364 2.52126 49.8528 2.27561 49.8528 1.88773C49.8528 1.49985 50.0364 1.24126 50.338 1.24126H54.2716V0.607728C54.2716 0.284495 54.5863 0.0646973 55.0584 0.0646973C55.5304 0.0646973 55.8451 0.297425 55.8451 0.607728V1.24126H59.8968C60.1984 1.24126 60.3951 1.52571 60.3951 1.88773C60.3951 2.24975 60.1853 2.52126 59.8968 2.52126H58.284C58.1266 2.98672 57.8382 3.60732 57.6546 3.98227H58.7429C59.5296 3.98227 59.9361 4.38308 59.9361 5.15884V11.1968ZM56.1991 3.98227C56.422 3.56854 56.6581 2.98672 56.8285 2.52126H53.4193L53.4718 2.6247C53.6816 3.06429 53.7996 3.3746 54.0225 3.96934H56.2122L56.1991 3.98227ZM53.8389 10.1754C53.8389 10.3564 53.9307 10.4598 54.1274 10.4598H56.0811C56.2647 10.4598 56.3827 10.3693 56.3827 10.1754V9.37379C56.3827 9.19278 56.2778 9.07641 56.0811 9.07641H54.1274C53.9438 9.07641 53.8389 9.16692 53.8389 9.37379V10.1754ZM56.6843 8.08086C57.3006 8.08086 57.6021 8.39116 57.6021 8.99884V10.5762C57.6021 10.7831 57.5497 10.977 57.4972 11.1063C57.6808 11.1192 57.7857 11.1192 57.9037 11.1192C58.3495 11.1192 58.4544 11.0287 58.4544 10.6796V5.53379C58.4544 5.28813 58.3233 5.15884 58.0742 5.15884H55.7664V6.06389H57.7595C57.9955 6.06389 58.2053 6.32247 58.2053 6.63278C58.2053 6.94308 58.0217 7.18874 57.7595 7.18874H55.7664V8.06793H56.6974L56.6843 8.08086Z" fill="#231815"/>
<path d="M63.5944 7.96443C63.1748 9.29615 62.8864 9.9814 62.493 10.7184C62.2439 11.2097 62.0996 11.3261 61.7849 11.3261C61.3916 11.3261 61.0507 10.9899 61.0507 10.602C61.0507 10.4641 61.1643 10.2012 61.3916 9.81332C62.2045 8.42989 62.9519 6.59393 63.4502 4.70625H61.9423C61.6014 4.70625 61.3654 4.40888 61.3654 3.94342C61.3654 3.47797 61.6014 3.1806 61.9423 3.1806H63.5944V0.72403C63.5944 0.400798 63.9091 0.155141 64.3549 0.155141C64.8008 0.155141 65.1286 0.400798 65.1286 0.72403V3.19353H66.5185C66.8594 3.19353 67.0954 3.50383 67.0954 3.95635C67.0954 4.40888 66.8594 4.71918 66.5185 4.71918H65.1286V5.79231C65.5482 6.15433 65.6924 6.2707 65.9153 6.47757C66.0202 6.55514 66.1644 6.69736 66.3611 6.86544L66.6889 7.18868C66.8987 7.36969 66.9774 7.5507 66.9774 7.74464C66.9774 8.11959 66.6365 8.45575 66.2693 8.45575C66.0071 8.45575 65.876 8.37817 65.6531 8.05494C65.5482 7.89979 65.2335 7.48605 65.1286 7.36969V14.2351C65.1286 14.5713 64.8139 14.804 64.3549 14.804C63.896 14.804 63.5944 14.5713 63.5944 14.2351V7.96443ZM74.0842 1.21534C74.7661 1.21534 75.1332 1.52565 75.1332 2.05575C75.1332 2.81858 74.176 4.39595 72.8255 5.81817L72.7468 5.90868C73.6646 6.59393 74.6481 7.14989 75.7757 7.60241C76.2215 7.77049 76.4182 8.00322 76.4182 8.36524C76.4182 8.80484 76.0511 9.19272 75.6315 9.19272C74.9365 9.19272 72.9959 8.0808 71.6847 6.93009C70.2817 8.1713 68.1575 9.41251 67.4757 9.41251C67.0692 9.41251 66.7152 9.0505 66.7152 8.62383C66.7152 8.41696 66.8069 8.22302 66.9643 8.09373C67.0561 8.01615 67.0692 8.00322 67.4888 7.84807C68.2755 7.51191 69.5867 6.68443 70.5964 5.84403C70.1768 5.37858 69.7047 4.75797 69.3245 4.16322C68.5902 5.02948 68.0788 5.41736 67.6855 5.41736C67.2921 5.41736 66.9512 5.04241 66.9512 4.64161C66.9512 4.40888 67.0298 4.25373 67.3445 3.96928C68.4722 2.88322 69.1278 2.02989 69.8096 0.672313C70.0194 0.297363 70.2161 0.142212 70.5439 0.142212C70.9635 0.142212 71.3438 0.465444 71.3438 0.840394C71.3438 0.943828 71.3176 1.06019 71.2651 1.21534H74.058H74.0842ZM73.9138 8.89534C74.753 8.89534 75.1857 9.33494 75.1857 10.1495V13.2525C75.1857 14.0929 74.7399 14.5196 73.9138 14.5196H69.3638C68.5246 14.5196 68.1182 14.1058 68.1182 13.2654V10.1495C68.1182 9.30908 68.5246 8.89534 69.3638 8.89534H73.9138ZM69.6785 12.8129C69.6785 13.0198 69.7834 13.1232 69.9932 13.1232H73.2582C73.4811 13.1232 73.586 13.0327 73.586 12.8129V10.5891C73.586 10.3564 73.4942 10.2529 73.2582 10.2529H69.9932C69.7834 10.2529 69.6785 10.3564 69.6785 10.5891V12.8129ZM70.3079 2.88322C70.3079 2.88322 70.2423 2.97373 70.1637 3.06423C70.5439 3.68484 71.0553 4.31837 71.6323 4.91312C72.4452 4.04686 73.2057 3.02544 73.2057 2.76686C73.2057 2.63757 73.0746 2.58585 72.8124 2.58585H70.5046L70.321 2.88322H70.3079Z" fill="#231815"/>
<path d="M77.4803 5.65006C77.2312 5.41733 77.1656 5.28804 77.1656 5.04238C77.1656 4.57693 77.559 4.17612 78.0179 4.17612C78.3589 4.17612 78.7785 4.48642 79.8274 5.54663C79.9717 5.67592 79.9717 5.68885 80.1684 5.86986C80.4044 6.10259 80.4962 6.2836 80.4962 6.55511C80.4962 7.00764 80.0897 7.40844 79.6439 7.40844C79.4341 7.40844 79.032 7.124 78.4375 6.55511C78.1491 6.27067 77.9524 6.07673 77.8344 5.98622L77.4672 5.66299L77.4803 5.65006ZM81.4534 9.16683C81.4534 9.684 80.5617 11.6493 79.6439 13.1103C78.8702 14.3644 78.6473 14.5971 78.2015 14.5971C77.7033 14.5971 77.2574 14.1834 77.2574 13.7309C77.2574 13.5757 77.3623 13.343 77.5721 13.0327C78.2802 11.9596 79.1981 10.2917 79.8012 8.90824C79.9848 8.50743 80.2077 8.31349 80.5617 8.31349C81.0469 8.31349 81.4534 8.70137 81.4534 9.16683ZM79.775 1.08602C80.0372 1.31875 80.3388 1.60319 80.8502 2.12036C81.0207 2.28844 81.0993 2.48238 81.0993 2.71511C81.0993 3.15471 80.6797 3.58137 80.2339 3.58137C79.9848 3.58137 79.8668 3.51673 79.5783 3.21935C79.08 2.72804 78.5031 2.21087 78.0835 1.84885C77.8475 1.66784 77.7557 1.4739 77.7557 1.24117C77.7557 0.775717 78.1622 0.361979 78.5949 0.361979C78.8965 0.361979 79.2112 0.54299 79.7881 1.07309L79.775 1.08602ZM83.6956 1.52562C84.2463 2.40481 84.5741 3.09006 84.5741 3.3745C84.5741 3.82703 84.1807 4.17612 83.7087 4.17612C83.3677 4.17612 83.1842 4.04683 82.9875 3.65895C82.463 2.66339 82.2925 2.36602 81.9779 1.87471C81.8074 1.61612 81.7549 1.48683 81.7549 1.31875C81.7549 0.930868 82.1614 0.555919 82.6072 0.555919C83.0137 0.555919 83.1842 0.724 83.6956 1.51269V1.52562ZM83.9185 14.2093C83.9185 14.5842 83.5775 14.8299 83.0793 14.8299C82.581 14.8299 82.2401 14.5842 82.2401 14.2093V5.89572C82.2401 4.99067 82.6859 4.564 83.5907 4.564H85.7542V0.724C85.7542 0.361979 86.0951 0.103394 86.5671 0.103394C87.0392 0.103394 87.4063 0.361979 87.4063 0.724V4.55107H89.701C90.5926 4.55107 91.0515 5.0036 91.0515 5.88279V13.2396C91.0515 13.9507 90.8942 14.3256 90.527 14.5454C90.2255 14.7006 89.8714 14.7523 88.9405 14.7523C87.2096 14.7523 86.7769 14.5842 86.7769 13.8989C86.7769 13.4206 87.1047 13.1232 87.6292 13.1232C87.6817 13.1232 87.7604 13.1232 87.839 13.1361C88.1799 13.162 88.6389 13.1878 88.888 13.1878C89.2814 13.1878 89.3863 13.0844 89.3863 12.7095V11.0416H83.8922V14.2222L83.9185 14.2093ZM89.4125 6.24481C89.4125 6.02501 89.3076 5.92158 89.0716 5.92158H84.2725C84.0496 5.92158 83.9316 6.02501 83.9316 6.24481V7.17572H89.4256V6.24481H89.4125ZM89.4125 9.80036V8.41693H83.9185V9.80036H89.4125ZM91.3924 1.26703C91.3924 1.59026 91.0778 2.27551 90.5533 3.15471C90.0025 4.07269 89.8452 4.21491 89.4518 4.21491C89.006 4.21491 88.6127 3.83996 88.6127 3.43915C88.6127 3.27107 88.6651 3.15471 88.8356 2.89612C89.0847 2.50824 89.5305 1.68077 89.8321 1.06016C90.0157 0.685212 90.2255 0.53006 90.5533 0.53006C91.0122 0.53006 91.3924 0.853293 91.3924 1.2541V1.26703Z" fill="#231815"/>
<path d="M106.354 4.7321C107.048 4.7321 107.363 4.99069 107.363 5.55958C107.363 5.7923 107.337 6.0121 107.219 6.43877C107.048 7.2016 106.721 7.44725 105.881 7.43432C105.895 7.52483 105.908 7.65412 105.908 7.77048V11.2614C105.908 11.9725 105.541 12.3345 104.819 12.3345H95.6146C94.8934 12.3345 94.5394 11.9725 94.5394 11.2614V8.15836C94.0935 8.28766 93.6871 8.37816 93.4904 8.37816C93.097 8.37816 92.8348 8.06786 92.8348 7.65412C92.8348 7.39554 92.979 7.17574 93.2019 7.08523C93.2719 7.05075 93.4248 7.01628 93.6608 6.9818C95.0245 6.73614 95.9293 6.34826 96.5062 5.75351H94.3951C93.7789 5.75351 93.451 5.53372 93.451 5.11998C93.451 5.02947 93.4642 4.91311 93.5166 4.78382C93.6215 4.39594 93.6871 4.1115 93.7264 3.72362C93.7789 3.15473 94.0673 2.94786 94.841 2.93493H97.529V2.14624H93.7133C93.4248 2.14624 93.2413 1.92644 93.2413 1.59028C93.2413 1.27998 93.4248 1.04725 93.7133 1.04725H97.529V0.672303C97.529 0.362 97.8437 0.129272 98.2895 0.129272C98.7353 0.129272 99.0631 0.362 99.0631 0.672303V1.04725H101.24V0.711091C101.24 0.387858 101.554 0.155131 102 0.155131C102.446 0.155131 102.774 0.387858 102.774 0.711091V1.04725H105.724C106.367 1.04725 106.694 1.37048 106.694 2.00402V2.98665C106.694 3.63311 106.367 3.94341 105.724 3.94341H102.774V4.74503H106.38L106.354 4.7321ZM98.6304 13.1232C98.6304 13.4594 98.473 13.6404 97.9223 13.8343C96.6504 14.3256 94.382 14.9204 93.7657 14.9204C93.3724 14.9204 93.0577 14.5842 93.0577 14.1446C93.0577 13.899 93.2019 13.6662 93.4248 13.5499C93.4948 13.5068 93.674 13.4594 93.9624 13.4077C94.8016 13.2525 95.9948 12.9422 97.3323 12.5414C97.7257 12.4121 97.7912 12.3992 97.9354 12.3992C98.3419 12.3992 98.6435 12.7095 98.6435 13.1103L98.6304 13.1232ZM97.2012 4.7321C97.3061 4.5123 97.3847 4.202 97.4372 3.93048H95.4572C95.2737 3.93048 95.2081 3.99513 95.1556 4.16321L95.0901 4.46059C95.0901 4.46059 95.077 4.53816 95.077 4.56402C95.077 4.66745 95.1688 4.7321 95.3654 4.7321H97.2012ZM104.282 7.92564C104.282 7.71877 104.151 7.61533 103.954 7.61533H96.5324C96.3226 7.61533 96.2177 7.71877 96.2177 7.92564V8.28766H104.282V7.92564ZM96.2177 9.11513V9.81331H104.282V9.11513H96.2177ZM96.2177 10.6537V11.0933C96.2177 11.3002 96.3095 11.4036 96.5324 11.4036H103.954C104.164 11.4036 104.282 11.3002 104.282 11.0933V10.6537H96.2177ZM101.24 5.74059H98.3419C98.0928 6.11554 97.7781 6.43877 97.411 6.73614H101.227V5.74059H101.24ZM99.0107 3.93048C98.9582 4.24079 98.9189 4.48644 98.8271 4.7321H101.253V3.93048H99.0238H99.0107ZM99.0762 2.922H101.253V2.13331H99.0762V2.922ZM106.826 13.4206C107.245 13.5499 107.442 13.7567 107.442 14.1188C107.442 14.5584 107.14 14.8816 106.734 14.8816C106.603 14.8816 106.59 14.8816 106.17 14.7394C105.003 14.3774 104.151 14.1446 102.551 13.7567C102.066 13.6533 101.869 13.4594 101.869 13.1361C101.869 12.6965 102.131 12.4121 102.525 12.4121C103.141 12.4121 105.029 12.8517 106.812 13.4206H106.826ZM102.774 2.922H104.846C104.99 2.922 105.069 2.85735 105.069 2.7022V2.34018C105.055 2.19796 104.99 2.13331 104.846 2.12038H102.774V2.90907V2.922ZM104.138 6.73614C104.164 6.4517 104.321 6.33533 104.623 6.33533C104.688 6.33533 104.714 6.33533 104.924 6.34826C105.069 6.36119 105.226 6.37412 105.344 6.37412C105.685 6.37412 105.803 6.27069 105.803 5.93453C105.803 5.7923 105.724 5.72766 105.501 5.72766H102.761V6.72321H104.124L104.138 6.73614Z" fill="#231815"/>
<path d="M111.966 9.61937C110.445 10.4468 109.592 10.8089 109.264 10.8089C108.845 10.8089 108.478 10.421 108.478 9.98139C108.478 9.77452 108.57 9.56766 108.74 9.42543C108.845 9.322 108.963 9.27028 109.527 9.03755C110.943 8.49452 113.067 7.38261 114.863 6.21897H109.186C108.858 6.21897 108.622 5.9216 108.622 5.52079C108.622 5.08119 108.858 4.77089 109.186 4.77089H114.418V3.28402H110.799C110.471 3.28402 110.235 2.98665 110.235 2.57291C110.235 2.15917 110.471 1.8618 110.799 1.8618H114.418V0.775737C114.418 0.387858 114.758 0.129272 115.257 0.129272C115.755 0.129272 116.122 0.413717 116.122 0.775737V1.8618H118.469C118.85 1.8618 119.112 2.15917 119.112 2.57291C119.112 2.62463 119.112 2.65048 119.099 2.71513C119.636 2.1721 120.174 1.60321 120.515 1.16362C120.751 0.866242 120.961 0.762808 121.236 0.762808C121.682 0.762808 122.049 1.12483 122.049 1.55149C122.049 1.78422 121.97 1.93937 121.708 2.24968C121.026 3.03836 120.239 3.81412 119.138 4.78382H122.796C123.124 4.78382 123.347 5.09412 123.347 5.53372C123.347 5.97331 123.124 6.2319 122.796 6.2319H117.355L117.184 6.36119C116.62 6.77493 116.214 7.05937 115.44 7.57655H120.108C121.039 7.57655 121.472 7.99028 121.472 8.89533V13.1879C121.472 14.067 121.013 14.5066 120.082 14.5066H113.316C112.385 14.5066 111.952 14.0929 111.952 13.2008V9.6323L111.966 9.61937ZM119.794 9.23149C119.794 9.0117 119.702 8.90826 119.479 8.90826H113.946C113.736 8.90826 113.618 9.0117 113.618 9.21857V10.3176H119.794V9.23149ZM113.618 11.5846V12.7483C113.618 12.9681 113.762 13.1103 113.985 13.1103H119.479C119.702 13.1103 119.807 12.981 119.807 12.7483V11.5846H113.631H113.618ZM116.83 4.77089C117.525 4.202 117.997 3.77533 118.509 3.28402H116.122V4.77089H116.83Z" fill="#231815"/>
<path d="M137.049 0.87915C137.98 0.87915 138.452 1.3446 138.452 2.24966V12.9939C138.452 13.8989 137.98 14.3644 137.049 14.3644H126.415C125.497 14.3644 125.025 13.8989 125.025 12.9939V2.24966C125.025 1.3446 125.497 0.87915 126.415 0.87915H137.049ZM126.691 12.4121C126.691 12.7095 126.822 12.8517 127.097 12.8517H136.381C136.643 12.8517 136.8 12.6965 136.8 12.4121V2.80562C136.8 2.54703 136.643 2.39188 136.381 2.39188H127.097C126.809 2.39188 126.691 2.5341 126.691 2.80562V12.425V12.4121ZM132.709 3.33572C132.709 3.01248 133.024 2.77976 133.496 2.77976C133.968 2.77976 134.283 3.01248 134.283 3.33572V4.75794H135.83C136.145 4.75794 136.367 5.06824 136.367 5.50784C136.367 5.94743 136.145 6.21895 135.83 6.21895H134.283V10.6278C134.283 11.4682 134.099 11.8561 133.64 12.0242C133.378 12.1147 133.076 12.1535 132.368 12.1535C130.598 12.1535 130.218 12.0113 130.218 11.326C130.218 10.8606 130.533 10.5632 130.991 10.5632C131.057 10.5632 131.083 10.5632 131.214 10.5761C131.503 10.602 131.831 10.6278 132.185 10.6278C132.604 10.6278 132.722 10.5244 132.722 10.1365V6.23188H127.622C127.294 6.23188 127.084 5.9345 127.084 5.50784C127.084 5.08117 127.307 4.7838 127.622 4.7838H132.722V3.36157L132.709 3.33572ZM129.838 7.20158C130.716 8.14541 131.162 8.77895 131.162 9.08925C131.162 9.47713 130.755 9.85208 130.31 9.85208C130.021 9.85208 129.89 9.76157 129.654 9.41248C129.431 9.10218 129.012 8.58501 128.579 8.0937C128.343 7.84804 128.277 7.69289 128.277 7.48602C128.277 7.11107 128.657 6.76198 129.064 6.76198C129.313 6.76198 129.549 6.89127 129.838 7.20158Z" fill="#231815"/>
<path d="M143.894 14.1318C143.894 14.5067 143.566 14.7653 143.094 14.7653C142.622 14.7653 142.294 14.5067 142.294 14.1318V6.80085C141.494 8.0162 141.127 8.37822 140.734 8.37822C140.288 8.37822 139.921 8.00327 139.921 7.58954C139.921 7.35681 139.973 7.2663 140.262 6.83964C141.507 5.18469 142.543 3.15479 143.356 0.840445C143.501 0.426707 143.723 0.232768 144.091 0.232768C144.55 0.232768 144.93 0.556 144.93 0.956808C144.93 1.33176 144.471 2.57297 143.894 3.84004V14.1188V14.1318ZM150.975 4.82267C151.774 6.67156 153.099 8.72731 154.712 10.6796C154.921 10.9124 155 11.1192 155 11.352C155 11.7916 154.607 12.1794 154.161 12.1794C153.82 12.1794 153.676 12.076 153.282 11.4813C151.971 9.516 151.001 7.69297 150.293 5.93459V10.2659H151.787C152.155 10.2659 152.404 10.5762 152.404 11.0287C152.404 11.4813 152.155 11.7786 151.787 11.7786H150.319V14.1835C150.319 14.5584 149.991 14.817 149.506 14.817C149.021 14.817 148.719 14.5714 148.719 14.1835V11.7786H147.329C146.988 11.7786 146.726 11.4683 146.726 11.0287C146.726 10.5891 146.975 10.2659 147.329 10.2659H148.745V6.08974C148.103 7.89984 147.106 9.81337 145.9 11.5071C145.664 11.8303 145.572 11.9596 145.52 12.0243C145.349 12.2053 145.126 12.3217 144.904 12.3217C144.458 12.3217 144.091 11.9596 144.091 11.5459C144.091 11.3304 144.274 10.9942 144.641 10.5374C145.979 8.88246 147.211 6.77499 147.985 4.84853H145.166C144.799 4.84853 144.563 4.55115 144.563 4.0857C144.563 3.62024 144.799 3.32287 145.166 3.32287H148.706V0.827515C148.706 0.452566 149.021 0.206909 149.493 0.206909C149.965 0.206909 150.306 0.452566 150.306 0.827515V3.30994H154.121C154.489 3.30994 154.725 3.60731 154.725 4.07277C154.725 4.53822 154.489 4.8356 154.121 4.8356H150.948L150.975 4.82267Z" fill="#231815"/>
<path d="M3.64521 24.7596C3.64521 25.5483 2.80602 28.0437 2.07174 29.5047C1.9275 29.7633 1.80949 30.0219 1.74393 30.1124C1.56036 30.3968 1.25878 30.5649 0.944083 30.5649C0.445817 30.5649 0 30.1512 0 29.6599C0 29.4271 0.0262245 29.3754 0.314694 28.8841C0.944083 27.7851 1.63903 25.975 1.95373 24.5528C2.04551 24.1649 2.32087 23.9451 2.72735 23.9451C3.27806 23.9451 3.65832 24.2683 3.65832 24.7467L3.64521 24.7596ZM5.93985 18.4372C5.93985 18.0235 6.32011 17.7132 6.81837 17.7132C7.31664 17.7132 7.6969 18.0235 7.6969 18.4372V21.0619H13.0336C13.4138 21.0619 13.6892 21.3851 13.6892 21.8247C13.6892 22.2643 13.4007 22.5875 13.0336 22.5875H7.6969V31.2889C7.6969 31.7027 7.32975 32.013 6.81837 32.013C6.307 32.013 5.93985 31.7156 5.93985 31.2889V22.5875H0.721174C0.340919 22.5875 0.0655613 22.2643 0.0655613 21.8247C0.0655613 21.3851 0.354031 21.0619 0.721174 21.0619H5.93985V18.4372ZM11.2897 24.139C11.3246 24.1994 11.3858 24.3545 11.4732 24.6045C11.9322 25.8328 12.8631 27.7463 13.545 28.897C13.7023 29.1427 13.7679 29.3366 13.7679 29.5306C13.7679 29.9831 13.3614 30.358 12.85 30.358C12.2731 30.358 12.0502 30.0736 11.1061 28.1471C10.3718 26.6473 9.70307 24.9407 9.70307 24.5528C9.70307 24.1132 10.0964 23.777 10.5685 23.777C10.8569 23.777 11.1192 23.9322 11.2765 24.152L11.2897 24.139ZM14.6988 19.0708C14.6988 20.1051 13.8203 20.9843 12.7582 20.9843C11.6961 20.9843 10.8176 20.118 10.8176 19.0708C10.8176 18.0235 11.6961 17.1572 12.7713 17.1572C13.8465 17.1572 14.6857 18.0364 14.6857 19.0708H14.6988ZM11.7748 19.0708C11.7748 19.6138 12.2206 20.0534 12.7713 20.0534C13.3221 20.0534 13.7679 19.6138 13.7679 19.0708C13.7679 18.5277 13.3089 18.0881 12.7713 18.0881C12.2337 18.0881 11.7748 18.5407 11.7748 19.0708Z" fill="#231815"/>
<path d="M28.7421 23.8158C29.1354 23.8158 29.4501 24.1907 29.4501 24.6562C29.4501 25.1216 29.1485 25.4578 28.7421 25.4578H16.4952C16.1018 25.4578 15.8003 25.0958 15.8003 24.6303C15.8003 24.1649 16.1018 23.8029 16.4952 23.8029H28.7421V23.8158Z" fill="#231815"/>
<path d="M42.5624 19.6137C43.572 19.6137 44.0441 19.9887 44.0441 20.7773C44.0441 21.3721 43.5458 23.0917 42.9951 24.3588C41.9068 26.9317 40.4906 28.6254 38.2091 30.0864C36.793 31.0044 34.813 31.8448 34.0788 31.8448C33.6329 31.8448 33.3051 31.4569 33.3051 30.9268C33.3051 30.6683 33.4494 30.4355 33.6854 30.2933C33.7466 30.2588 33.9651 30.1813 34.341 30.0606C36.2816 29.4529 38.1436 28.3022 39.3105 27.0351C38.1042 25.962 37.0683 25.1862 35.9669 24.5268C35.7047 24.3588 35.5735 24.1648 35.5735 23.9062C35.5735 23.4925 35.9407 23.1175 36.3472 23.1175C36.5307 23.1175 36.675 23.1693 37.0421 23.3761C38.1173 23.9838 39.0876 24.6949 40.294 25.7681C41.1725 24.4234 41.7888 23.0529 42.1166 21.7729C42.1821 21.5143 42.1952 21.4109 42.1952 21.3333C42.1952 21.1652 42.1035 21.1135 41.7888 21.1135H36.8192C35.744 22.7167 34.5508 23.9838 33.2527 24.863C32.8069 25.1733 32.6233 25.2509 32.3742 25.2509C31.9808 25.2509 31.6136 24.863 31.6136 24.4493C31.6136 24.2683 31.6923 24.0614 31.8366 23.9192C31.889 23.8674 32.0769 23.7209 32.4004 23.4796C34.1181 22.2513 35.6916 20.2602 36.3734 18.4371C36.5307 18.0363 36.793 17.8295 37.1732 17.8295C37.6715 17.8295 38.0518 18.1268 38.0518 18.5276C38.0518 18.7474 37.9075 19.0965 37.6453 19.6137H42.5624Z" fill="#231815"/>
<path d="M49.8659 21.4885C49.8659 24.7208 49.7217 26.0784 49.2103 27.4231C48.7251 28.7289 47.7811 29.9572 46.6796 30.7717C46.3518 31.0174 46.1814 31.095 45.9453 31.095C45.4733 31.095 45.0537 30.6554 45.0537 30.1899C45.0537 29.815 45.1324 29.7115 45.6306 29.3366C47.5844 27.798 48.1613 26.0008 48.1089 21.5014V19.2259C48.1089 18.8122 48.476 18.5148 48.9874 18.5148C49.4988 18.5148 49.8659 18.8122 49.8659 19.2259V21.4756V21.4885ZM53.8783 28.5479C53.8783 28.7806 53.9045 28.8841 54.0094 28.8841C54.1536 28.8841 54.665 28.5608 55.137 28.173C56.5269 27.0093 57.5759 25.4707 58.0873 23.7641C58.1922 23.4279 58.4544 23.234 58.8216 23.234C59.3198 23.234 59.7001 23.5701 59.7001 24.0356C59.7001 24.32 59.451 25.0699 59.0838 25.8328C58.1397 27.8756 56.4352 29.6598 54.3503 30.8364C53.97 31.0433 53.6685 31.1338 53.3538 31.1338C52.6195 31.1338 52.1212 30.5649 52.1212 29.7245V18.7863C52.1212 18.3726 52.4884 18.0623 52.9735 18.0623C53.498 18.0623 53.852 18.3726 53.852 18.7863V28.5221L53.8783 28.5479Z" fill="#231815"/>
<path d="M70.1112 18.5406C70.1112 18.1268 70.4784 17.8295 71.0029 17.8295C71.5274 17.8295 71.8814 18.1268 71.8814 18.5406V21.0876H74.5694C74.9497 21.0876 75.225 21.4109 75.225 21.8505C75.225 22.2901 74.9365 22.6133 74.5694 22.6133H71.8814V23.0658C71.8814 26.0396 71.4749 27.8367 70.4784 29.2202C69.8359 30.1382 68.8131 30.9398 67.6855 31.4569C67.2921 31.638 67.0823 31.7026 66.8856 31.7026C66.4398 31.7026 66.0858 31.3018 66.0858 30.8363C66.0858 30.3967 66.2562 30.2157 66.8201 29.9701C69.3114 28.8194 70.1112 27.1127 70.1112 23.0788V22.6133H65.5482V26.4274C65.5482 26.8412 65.181 27.1386 64.6696 27.1386C64.1583 27.1386 63.778 26.8412 63.778 26.4274V22.6133H61.3129C60.9327 22.6133 60.6704 22.2901 60.6704 21.8375C60.6704 21.385 60.9327 21.0876 61.3129 21.0876H63.778V18.6699C63.778 18.2561 64.1583 17.9458 64.6696 17.9458C65.181 17.9458 65.5482 18.2561 65.5482 18.6699V21.0876H70.1112V18.5406Z" fill="#231815"/>
<path d="M84.1807 31.0045C84.1807 31.4441 83.8135 31.7285 83.2891 31.7285C82.7646 31.7285 82.4105 31.4311 82.4105 31.0045V23.7899C80.5879 24.9535 77.6901 26.2982 77.0345 26.2982C76.6149 26.2982 76.2478 25.8974 76.2478 25.419C76.2478 25.1216 76.392 24.8889 76.628 24.7467C76.628 24.7467 76.7941 24.6863 77.1263 24.5657C80.3781 23.3891 83.7742 21.0877 86.3049 18.3596C86.4753 18.1527 86.7245 18.0364 86.9474 18.0364C87.4063 18.0364 87.839 18.4501 87.839 18.8897C87.839 19.1483 87.8128 19.2 87.2752 19.743C86.5147 20.5447 85.3214 21.6178 84.1807 22.5358V31.0045Z" fill="#231815"/>
<path d="M94.7492 31.1596C94.7492 31.5992 94.382 31.8836 93.8313 31.8836C93.2806 31.8836 92.9397 31.5862 92.9397 31.1596V18.5664C92.9397 18.1268 93.32 17.8165 93.8576 17.8165C94.3952 17.8165 94.7492 18.1268 94.7492 18.5664V22.3159C97.6208 23.1951 99.5483 23.8933 101.594 24.8113C102.013 25.0181 102.249 25.3026 102.249 25.6517C102.249 26.1171 101.83 26.5826 101.384 26.5826C101.161 26.5826 101.122 26.5697 100.571 26.2852C99.0762 25.5353 96.7685 24.6303 94.7492 23.9579V31.1596Z" fill="#231815"/>
</g>
<defs>
<clipPath id="clip0_1248_3525">
<rect width="155" height="32" fill="white"/>
</clipPath>
</defs>
</svg>
