<svg width="385" height="50" viewBox="0 0 385 50" fill="none" xmlns="http://www.w3.org/2000/svg">
<g clip-path="url(#clip0_652_4542)">
<g clip-path="url(#clip1_652_4542)">
<path d="M6.80178 14.7528C6.80178 14.9355 6.56809 15.327 6.1007 15.9273C3.91954 18.6481 2.73159 21.9562 2.73159 25.2447C2.73159 28.5332 4.05586 32.1545 6.45124 34.9928C6.70441 35.2668 6.80178 35.4822 6.80178 35.717C6.80178 36.1477 6.43176 36.5196 6.0228 36.5196C5.47751 36.5196 4.718 35.9128 3.7248 34.7383C1.58259 32.1349 0.18042 28.3962 0.18042 25.2251C0.199895 21.6626 1.99156 17.3562 4.50378 14.8898C5.20486 14.2047 5.65278 13.9307 6.04227 13.9307C6.47071 13.9307 6.82126 14.3026 6.82126 14.7528H6.80178Z" fill="#231815"/>
<path d="M13.7153 18.9417V15.0073C13.7153 14.4983 14.1827 14.1069 14.8643 14.1069C15.5459 14.1069 16.0327 14.4788 16.0327 15.0073V18.9417H17.8633C18.3502 18.9417 18.7008 19.4311 18.7008 20.1162C18.7008 20.8013 18.3697 21.2907 17.8633 21.2907H16.0327V25.3817H16.1106L16.247 25.3035L16.8117 25.049C16.948 25.0098 17.1233 24.9315 17.2596 24.8532C17.4933 24.7358 17.727 24.6966 17.9412 24.6966C18.5255 24.6966 19.0124 25.2447 19.0124 25.8907C19.0124 25.969 19.0124 26.0081 18.9929 26.106H26.1595V23.8354H18.7397C18.2334 23.8354 17.8828 23.3852 17.8828 22.7392C17.8828 22.0932 18.2334 21.643 18.7397 21.643H23.4331V19.2549H19.694C19.1876 19.2549 18.8371 18.8243 18.8371 18.1783C18.8371 17.5324 19.1876 17.1017 19.694 17.1017H23.4331V14.9486C23.4331 14.4396 23.9199 14.0873 24.6405 14.0873C25.3221 14.0873 25.809 14.4396 25.809 14.9486V17.0626H29.8597C30.366 17.0626 30.6971 17.5128 30.6971 18.1392C30.6971 18.7656 30.366 19.2158 29.8597 19.2158H25.809V21.6039H30.8529C31.3398 21.6039 31.6903 22.0541 31.6903 22.7C31.6903 23.346 31.3592 23.7962 30.8529 23.7962H28.516V26.0669H30.5997C31.0866 26.0669 31.4371 26.5171 31.4371 27.163C31.4371 27.809 31.0866 28.2592 30.5997 28.2592H28.516V33.8379C28.516 35.6388 27.9122 36.1673 25.8285 36.1673C25.1274 36.1673 23.842 36.0498 23.472 35.952C22.9073 35.8149 22.6346 35.4626 22.6346 34.9145C22.6346 34.2098 23.0825 33.74 23.7252 33.74C23.8226 33.74 23.8615 33.74 24.1147 33.7792C24.5431 33.8183 25.0495 33.8771 25.439 33.8771C25.9843 33.8771 26.1401 33.7205 26.1401 33.1724V28.2396H19.0318C18.5255 28.2396 18.1944 27.7894 18.1944 27.1434C18.1944 27.0456 18.1944 26.9869 18.2139 26.8694C17.766 27.0847 16.5975 27.5937 16.0133 27.809V35.3647C16.0133 35.9128 15.5459 36.2847 14.8448 36.2847C14.1437 36.2847 13.6958 35.9128 13.6958 35.3647V28.6703L13.5789 28.7094C11.6899 29.3358 10.8135 29.6098 10.5409 29.6098C9.93719 29.6098 9.41138 29.0226 9.41138 28.3179C9.41138 27.8677 9.64507 27.5154 10.0735 27.3392C10.1904 27.2609 10.3072 27.2413 10.7551 27.1043C11.5731 26.8694 11.651 26.8498 13.0921 26.38L13.6958 26.1843V21.232H12.0794C11.9431 22.2107 11.7289 23.4243 11.5341 24.1877C11.4173 24.7358 11.0472 25.0294 10.5214 25.0294C9.91772 25.0294 9.48928 24.6379 9.48928 24.0507C9.48928 23.9593 9.59314 23.4047 9.80087 22.3869C10.1514 20.7817 10.3851 18.8243 10.4825 16.7103C10.4825 15.986 10.7941 15.6532 11.4173 15.6532C12.0989 15.6532 12.4299 15.9664 12.4299 16.632C12.4299 17.2388 12.4105 17.4932 12.3131 18.883H13.6958L13.7153 18.9417ZM22.7709 30.2166C23.4915 31.1954 23.8615 31.9392 23.8615 32.3307C23.8615 32.9179 23.2968 33.4073 22.5957 33.4073C22.1478 33.4073 21.9335 33.2898 21.6219 32.7222C20.9403 31.6847 20.6677 31.2932 20.0056 30.4124C19.8108 30.1579 19.7329 29.9426 19.7329 29.6881C19.7329 29.1205 20.3171 28.6311 20.9988 28.6311C21.544 28.6311 21.7388 28.8269 22.7709 30.1971V30.2166Z" fill="#231815"/>
<path d="M45.1863 33.2702C46.0431 33.4072 46.8221 33.4659 47.6595 33.4659H53.9888C54.573 33.4659 55.0015 33.9749 55.0015 34.66C55.0015 35.3451 54.573 35.8344 53.9888 35.8344H47.6206C43.1609 35.7561 39.9671 34.4251 37.8249 31.8217C37.338 32.8983 36.7343 33.9357 35.9942 34.8949C35.1958 35.9519 34.9426 36.1672 34.3584 36.1672C33.6768 36.1672 33.0536 35.5604 33.0536 34.8753C33.0536 34.5229 33.151 34.3272 33.5405 33.8183C35.2737 31.5085 36.1111 29.7076 36.968 26.4191C37.1822 25.6166 37.5133 25.3229 38.0975 25.3229C38.9154 25.3229 39.4802 25.8123 39.4802 26.4974C39.4802 26.928 39.1102 28.3961 38.7012 29.5902C39.7528 31.0191 41.0576 32.037 42.6935 32.6438V23.7374H37.1433C36.6369 23.7374 36.2864 23.2872 36.2864 22.6412C36.2864 21.9953 36.6369 21.5451 37.1433 21.5451H50.6976C51.1844 21.5451 51.5545 22.0149 51.5545 22.6412C51.5545 23.2676 51.2039 23.7374 50.6976 23.7374H45.1863V26.9672H51.7881C52.275 26.9672 52.6256 27.4566 52.6256 28.1025C52.6256 28.7485 52.275 29.1791 51.7881 29.1791H45.1863V33.2702ZM52.0803 16.6319C53.4435 16.6319 54.1056 17.317 54.1056 18.6676V21.2906C54.1056 21.8387 53.5993 22.2106 52.8592 22.2106C52.1192 22.2106 51.6518 21.8387 51.6518 21.2906V19.3332C51.6518 19.0004 51.4376 18.7851 51.1065 18.7851H36.6759C36.3448 18.7851 36.1695 19.0004 36.1695 19.3332V21.3102C36.1695 21.8583 35.6632 22.2302 34.9231 22.2302C34.1831 22.2302 33.7157 21.8583 33.7157 21.3102V18.648C33.7157 17.2778 34.3973 16.6123 35.7411 16.6123H42.5377V15.0855C42.5377 14.5178 43.083 14.1263 43.823 14.1263C44.5631 14.1263 45.1084 14.557 45.1084 15.0855V16.6123H52.0608L52.0803 16.6319Z" fill="#231815"/>
<path d="M60.7075 15.7119C62.8887 18.2958 64.2714 22.0541 64.2714 25.2251C64.2714 28.7681 62.4797 33.0941 59.9675 35.5409C59.2664 36.2456 58.8185 36.5196 58.429 36.5196C58.0395 36.5196 57.65 36.1477 57.65 35.717C57.65 35.5083 57.8837 35.1102 58.3511 34.523C60.5323 31.8022 61.7202 28.4941 61.7202 25.2251C61.7202 21.7605 60.5128 18.5502 58.0006 15.4575C57.7474 15.1443 57.65 14.9681 57.65 14.7332C57.65 14.3026 58.02 13.9307 58.4485 13.9307C58.9548 13.9307 59.7338 14.5375 60.6881 15.7119H60.7075Z" fill="#231815"/>
<path d="M80.8053 36.0107C76.5598 36.0107 74.0087 35.2277 72.256 33.3877C71.5354 34.249 70.5422 35.306 70.0164 35.7562C69.6269 36.1086 69.3542 36.226 69.0037 36.226C68.3805 36.226 67.7573 35.6192 67.7573 34.9537C67.7573 34.523 67.8742 34.3469 68.4584 33.8966C69.179 33.329 70.0748 32.5264 70.8733 31.7043V26.1256C70.8733 25.7928 70.7175 25.6362 70.3864 25.6362H68.7116C68.1468 25.6362 67.7573 25.1664 67.7573 24.5009C67.7573 23.8354 68.1468 23.3069 68.7116 23.3069H71.3796C72.5675 23.3069 73.2102 23.9332 73.2102 25.1469V31.6064C74.5929 33.0158 77.2025 33.7596 80.7469 33.7596H89.2183C89.7636 33.7596 90.1726 34.249 90.1726 34.8949C90.1726 35.5409 89.7831 36.0303 89.2183 36.0303H80.8053V36.0107ZM71.4185 15.8686C72.7818 17.2779 73.2686 17.9826 73.2686 18.4915C73.2686 19.1571 72.6454 19.7443 71.9054 19.7443C71.438 19.7443 71.2433 19.6269 70.8343 19.0396C70.2501 18.2371 69.5295 17.3758 68.7505 16.5732C68.4389 16.2405 68.361 16.0643 68.361 15.7511C68.361 15.1247 68.9648 14.5375 69.6074 14.5375C70.1138 14.5375 70.3085 14.6745 71.438 15.8686H71.4185ZM89.2183 30.8626C89.2183 32.409 88.7704 32.7418 86.6866 32.7418C85.0897 32.7418 84.6028 32.4873 84.6028 31.6456C84.6028 31.5281 84.6028 31.4303 84.6418 31.2737C84.525 31.2932 84.486 31.2932 84.3692 31.2932H79.6758C78.7799 31.2932 78.3515 30.843 78.3515 29.923V27.5349C78.3515 26.6149 78.7994 26.1452 79.6758 26.1452H81.039V24.8141H78.1957C77.8452 24.8141 77.5725 24.4422 77.5725 23.9724C77.5725 23.5026 77.8452 23.1111 78.1957 23.1111H81.039V21.7409H77.6894C77.3194 21.7409 77.1441 21.9366 77.1441 22.3086V31.9392C77.1441 32.4286 76.6767 32.7809 76.0146 32.7809C75.3524 32.7809 74.924 32.4481 74.924 31.9392V21.7409C74.924 20.5469 75.5082 19.9596 76.6962 19.9596H78.2152C77.9425 19.1375 77.6504 18.4524 77.3778 17.8652L77.3388 17.7477H74.9629C74.515 17.7477 74.2424 17.3758 74.2424 16.7886C74.2424 16.2013 74.515 15.8098 74.9629 15.8098H80.8053V14.8507C80.8053 14.3613 81.2727 14.0286 81.9738 14.0286C82.6749 14.0286 83.1423 14.3809 83.1423 14.8507V15.8098H89.1599C89.6078 15.8098 89.8999 16.2405 89.8999 16.7886C89.8999 17.3366 89.5883 17.7477 89.1599 17.7477H86.7645C86.5308 18.4524 86.1024 19.392 85.8298 19.9596H87.4461C88.6146 19.9596 89.2183 20.5664 89.2183 21.7409V30.8822V30.8626ZM83.6681 19.9401C83.9991 19.3137 84.3497 18.4328 84.6028 17.7281H79.5395L79.6174 17.8847C79.9289 18.5503 80.1042 19.0201 80.4353 19.9205H83.6875L83.6681 19.9401ZM80.1626 29.3162C80.1626 29.5903 80.299 29.7469 80.5911 29.7469H83.4928C83.7654 29.7469 83.9407 29.6098 83.9407 29.3162V28.1026C83.9407 27.8286 83.7849 27.6524 83.4928 27.6524H80.5911C80.3184 27.6524 80.1626 27.7894 80.1626 28.1026V29.3162ZM84.3886 26.1452C85.3039 26.1452 85.7519 26.6149 85.7519 27.5349V29.923C85.7519 30.2362 85.6739 30.5298 85.5961 30.7256C85.8687 30.7452 86.0245 30.7452 86.1998 30.7452C86.8619 30.7452 87.0177 30.6081 87.0177 30.0796V22.289C87.0177 21.9171 86.823 21.7213 86.4529 21.7213H83.0254V23.0915H85.9855C86.3361 23.0915 86.6477 23.483 86.6477 23.9528C86.6477 24.4226 86.375 24.7945 85.9855 24.7945H83.0254V26.1256H84.4081L84.3886 26.1452Z" fill="#231815"/>
<path d="M94.6517 25.9885C94.0285 28.0047 93.6001 29.0422 93.0159 30.1579C92.6458 30.9017 92.4316 31.0779 91.9642 31.0779C91.38 31.0779 90.8737 30.569 90.8737 29.9817C90.8737 29.7729 91.0424 29.3749 91.38 28.7877C92.5874 26.6932 93.6975 23.9137 94.4375 21.0558H92.1979C91.6916 21.0558 91.341 20.6056 91.341 19.9009C91.341 19.1962 91.6916 18.746 92.1979 18.746H94.6517V15.0268C94.6517 14.5375 95.1191 14.1656 95.7813 14.1656C96.4434 14.1656 96.9302 14.5375 96.9302 15.0268V18.7656H98.9946C99.5009 18.7656 99.8514 19.2354 99.8514 19.9205C99.8514 20.6056 99.5009 21.0754 98.9946 21.0754H96.9302V22.7C97.5534 23.2481 97.7677 23.4243 98.0987 23.7375C98.2545 23.8549 98.4687 24.0703 98.7609 24.3247L99.2477 24.8141C99.5593 25.0881 99.6762 25.3622 99.6762 25.6558C99.6762 26.2234 99.1698 26.7324 98.6245 26.7324C98.2351 26.7324 98.0403 26.6149 97.7092 26.1256C97.5534 25.8907 97.086 25.2643 96.9302 25.0881V35.4822C96.9302 35.9911 96.4629 36.3434 95.7813 36.3434C95.0996 36.3434 94.6517 35.9911 94.6517 35.4822V25.9885ZM110.231 15.7707C111.244 15.7707 111.789 16.2405 111.789 17.043C111.789 18.1979 110.368 20.586 108.362 22.7392L108.245 22.8762C109.608 23.9137 111.069 24.7554 112.744 25.4405C113.406 25.6949 113.698 26.0473 113.698 26.5954C113.698 27.2609 113.153 27.8481 112.529 27.8481C111.497 27.8481 108.615 26.1647 106.668 24.4226C104.584 26.3017 101.429 28.1809 100.416 28.1809C99.8125 28.1809 99.2867 27.6328 99.2867 26.9868C99.2867 26.6737 99.423 26.38 99.6567 26.1843C99.793 26.0668 99.8125 26.0473 100.436 25.8124C101.604 25.3034 103.552 24.0507 105.051 22.7783C104.428 22.0737 103.727 21.1341 103.162 20.2337C102.072 21.5451 101.312 22.1324 100.728 22.1324C100.144 22.1324 99.6372 21.5647 99.6372 20.9579C99.6372 20.6056 99.7541 20.3707 100.221 19.94C101.896 18.2958 102.87 17.0039 103.883 14.9485C104.194 14.3809 104.486 14.146 104.973 14.146C105.596 14.146 106.161 14.6354 106.161 15.203C106.161 15.3596 106.122 15.5358 106.044 15.7707H110.192H110.231ZM109.978 27.3979C111.225 27.3979 111.867 28.0634 111.867 29.2966V33.9945C111.867 35.2668 111.205 35.9128 109.978 35.9128H103.221C101.974 35.9128 101.37 35.2864 101.37 34.0141V29.2966C101.37 28.0243 101.974 27.3979 103.221 27.3979H109.978ZM103.688 33.329C103.688 33.6422 103.844 33.7988 104.155 33.7988H109.004C109.336 33.7988 109.491 33.6617 109.491 33.329V29.9622C109.491 29.6098 109.355 29.4532 109.004 29.4532H104.155C103.844 29.4532 103.688 29.6098 103.688 29.9622V33.329ZM104.623 18.2958C104.623 18.2958 104.525 18.4328 104.408 18.5698C104.973 19.5094 105.733 20.4685 106.59 21.369C107.797 20.0575 108.927 18.5111 108.927 18.1196C108.927 17.9239 108.732 17.8456 108.342 17.8456H104.915L104.642 18.2958H104.623Z" fill="#231815"/>
<path d="M115.275 22.4652C114.905 22.1128 114.808 21.9171 114.808 21.5452C114.808 20.8405 115.392 20.2337 116.074 20.2337C116.58 20.2337 117.203 20.7035 118.761 22.3086C118.975 22.5043 118.975 22.5239 119.268 22.7979C119.618 23.1503 119.754 23.4243 119.754 23.8354C119.754 24.5205 119.151 25.1273 118.489 25.1273C118.177 25.1273 117.58 24.6966 116.697 23.8354C116.268 23.4047 115.976 23.1111 115.801 22.9741L115.256 22.4847L115.275 22.4652ZM121.176 27.7894C121.176 28.5724 119.852 31.5477 118.489 33.7596C117.34 35.6583 117.008 36.0107 116.346 36.0107C115.606 36.0107 114.944 35.3843 114.944 34.6992C114.944 34.4643 115.1 34.112 115.412 33.6422C116.463 32.0175 117.826 29.4924 118.722 27.3979C118.995 26.7911 119.326 26.4975 119.852 26.4975C120.572 26.4975 121.176 27.0847 121.176 27.7894ZM118.683 15.5554C119.073 15.9077 119.521 16.3383 120.28 17.1213C120.533 17.3758 120.65 17.6694 120.65 18.0217C120.65 18.6873 120.027 19.3332 119.365 19.3332C118.995 19.3332 118.82 19.2354 118.391 18.7852C117.651 18.0413 116.794 17.2583 116.171 16.7103C115.821 16.4362 115.684 16.1426 115.684 15.7903C115.684 15.0856 116.288 14.4592 116.931 14.4592C117.379 14.4592 117.846 14.7332 118.703 15.5358L118.683 15.5554ZM124.506 16.2209C125.324 17.552 125.811 18.5894 125.811 19.02C125.811 19.7052 125.227 20.2337 124.526 20.2337C124.019 20.2337 123.747 20.0379 123.455 19.4507C122.676 17.9435 122.422 17.4932 121.955 16.7494C121.702 16.3579 121.624 16.1622 121.624 15.9077C121.624 15.3205 122.228 14.7528 122.89 14.7528C123.494 14.7528 123.747 15.0073 124.506 16.2013V16.2209ZM124.837 35.4235C124.837 35.9911 124.331 36.363 123.591 36.363C122.851 36.363 122.345 35.9911 122.345 35.4235V22.8371C122.345 21.4669 123.007 20.8209 124.35 20.8209H127.564V15.0269C127.564 14.4788 128.07 14.0873 128.771 14.0873C129.472 14.0873 130.018 14.4788 130.018 15.0269V20.8209H133.426C134.75 20.8209 135.431 21.506 135.431 22.8371V33.9749C135.431 35.0515 135.198 35.6192 134.652 35.952C134.205 36.1869 133.679 36.2652 132.296 36.2652C129.725 36.2652 129.083 36.0107 129.083 34.9732C129.083 34.249 129.57 33.7988 130.349 33.7988C130.426 33.7988 130.543 33.7988 130.66 33.8183C131.167 33.8575 131.848 33.8966 132.218 33.8966C132.802 33.8966 132.958 33.74 132.958 33.1724V30.6473H124.798V35.4626L124.837 35.4235ZM132.997 23.3656C132.997 23.0328 132.841 22.8762 132.491 22.8762H125.363C125.032 22.8762 124.857 23.0328 124.857 23.3656V24.7749H133.017V23.3656H132.997ZM132.997 28.7486V26.6541H124.837V28.7486H132.997ZM135.938 15.8294C135.938 16.3188 135.47 17.3562 134.691 18.6873C133.873 20.0771 133.64 20.2924 133.056 20.2924C132.393 20.2924 131.809 19.7247 131.809 19.1179C131.809 18.8635 131.887 18.6873 132.14 18.2958C132.51 17.7086 133.172 16.4558 133.62 15.5162C133.893 14.9486 134.205 14.7137 134.691 14.7137C135.373 14.7137 135.938 15.203 135.938 15.8098V15.8294Z" fill="#231815"/>
<path d="M158.158 21.0753C159.191 21.0753 159.658 21.4668 159.658 22.3281C159.658 22.6804 159.619 23.0132 159.444 23.6592C159.191 24.814 158.704 25.186 157.457 25.1664C157.477 25.3034 157.496 25.4992 157.496 25.6753V30.9604C157.496 32.037 156.951 32.5851 155.88 32.5851H142.209C141.138 32.5851 140.612 32.037 140.612 30.9604V26.2626C139.95 26.4583 139.346 26.5953 139.054 26.5953C138.47 26.5953 138.08 26.1255 138.08 25.4992C138.08 25.1077 138.294 24.7749 138.625 24.6379C138.729 24.5857 138.956 24.5335 139.307 24.4813C141.332 24.1094 142.676 23.5221 143.533 22.6217H140.398C139.482 22.6217 138.995 22.2889 138.995 21.6626C138.995 21.5255 139.015 21.3494 139.093 21.1536C139.249 20.5664 139.346 20.1357 139.404 19.5485C139.482 18.6872 139.911 18.374 141.06 18.3545H145.052V17.1604H139.385C138.956 17.1604 138.684 16.8277 138.684 16.3187C138.684 15.8489 138.956 15.4966 139.385 15.4966H145.052V14.9289C145.052 14.4592 145.519 14.1068 146.182 14.1068C146.844 14.1068 147.331 14.4592 147.331 14.9289V15.4966H150.563V14.9877C150.563 14.4983 151.031 14.146 151.693 14.146C152.355 14.146 152.842 14.4983 152.842 14.9877V15.4966H157.224C158.178 15.4966 158.665 15.986 158.665 16.9451V18.4328C158.665 19.4115 158.178 19.8813 157.224 19.8813H152.842V21.0949H158.197L158.158 21.0753ZM146.688 33.7792C146.688 34.2881 146.454 34.5621 145.636 34.8557C143.747 35.5996 140.378 36.5 139.463 36.5C138.879 36.5 138.411 35.9911 138.411 35.3255C138.411 34.9536 138.625 34.6013 138.956 34.4251C139.06 34.3599 139.326 34.2881 139.755 34.2098C141.001 33.9749 142.773 33.5051 144.76 32.8983C145.344 32.7026 145.441 32.683 145.656 32.683C146.259 32.683 146.707 33.1528 146.707 33.7596L146.688 33.7792ZM144.565 21.0753C144.721 20.7426 144.838 20.2728 144.916 19.8617H141.975C141.702 19.8617 141.605 19.9596 141.527 20.214L141.43 20.6643C141.43 20.6643 141.41 20.7817 141.41 20.8209C141.41 20.9774 141.547 21.0753 141.839 21.0753H144.565ZM155.081 25.9102C155.081 25.597 154.887 25.4404 154.595 25.4404H143.572C143.26 25.4404 143.105 25.597 143.105 25.9102V26.4583H155.081V25.9102ZM143.105 27.7111V28.7681H155.081V27.7111H143.105ZM143.105 30.0404V30.706C143.105 31.0192 143.241 31.1757 143.572 31.1757H154.595C154.906 31.1757 155.081 31.0192 155.081 30.706V30.0404H143.105ZM150.563 22.6021H146.259C145.889 23.1698 145.422 23.6592 144.877 24.1094H150.544V22.6021H150.563ZM147.253 19.8617C147.175 20.3315 147.116 20.7034 146.98 21.0753H150.583V19.8617H147.272H147.253ZM147.35 18.3349H150.583V17.1409H147.35V18.3349ZM158.859 34.2294C159.483 34.4251 159.775 34.7383 159.775 35.2864C159.775 35.9519 159.327 36.4413 158.723 36.4413C158.528 36.4413 158.509 36.4413 157.886 36.226C156.152 35.6779 154.887 35.3255 152.511 34.7383C151.79 34.5817 151.498 34.2881 151.498 33.7987C151.498 33.1332 151.888 32.7026 152.472 32.7026C153.387 32.7026 156.191 33.3681 158.84 34.2294H158.859ZM152.842 18.3349H155.919C156.133 18.3349 156.25 18.237 156.25 18.0021V17.454C156.23 17.2387 156.133 17.1409 155.919 17.1213H152.842V18.3153V18.3349ZM154.867 24.1094C154.906 23.6787 155.14 23.5026 155.588 23.5026C155.685 23.5026 155.724 23.5026 156.036 23.5221C156.25 23.5417 156.484 23.5613 156.659 23.5613C157.165 23.5613 157.34 23.4047 157.34 22.8957C157.34 22.6804 157.224 22.5826 156.893 22.5826H152.822V24.0898H154.848L154.867 24.1094Z" fill="#231815"/>
<path d="M166.493 28.4745C164.234 29.7272 162.969 30.2753 162.482 30.2753C161.859 30.2753 161.313 29.6881 161.313 29.0226C161.313 28.7094 161.45 28.3962 161.703 28.1809C161.859 28.0243 162.034 27.946 162.871 27.5936C164.974 26.7715 168.129 25.0881 170.797 23.3264H162.365C161.878 23.3264 161.527 22.8762 161.527 22.2694C161.527 21.6038 161.878 21.134 162.365 21.134H170.135V18.883H164.76C164.273 18.883 163.923 18.4328 163.923 17.8064C163.923 17.18 164.273 16.7298 164.76 16.7298H170.135V15.0855C170.135 14.4983 170.642 14.1068 171.382 14.1068C172.122 14.1068 172.667 14.5374 172.667 15.0855V16.7298H176.153C176.718 16.7298 177.107 17.18 177.107 17.8064C177.107 17.8847 177.107 17.9238 177.088 18.0217C177.886 17.1996 178.685 16.3383 179.191 15.6728C179.541 15.2226 179.853 15.066 180.262 15.066C180.924 15.066 181.469 15.614 181.469 16.26C181.469 16.6123 181.353 16.8472 180.963 17.317C179.95 18.5111 178.782 19.6855 177.146 21.1536H182.579C183.066 21.1536 183.397 21.6234 183.397 22.2889C183.397 22.9545 183.066 23.346 182.579 23.346H174.498L174.244 23.5417C173.407 24.1681 172.803 24.5987 171.654 25.3817H178.587C179.97 25.3817 180.613 26.0081 180.613 27.3783V33.877C180.613 35.2081 179.931 35.8736 178.548 35.8736H168.499C167.117 35.8736 166.474 35.2472 166.474 33.8966V28.494L166.493 28.4745ZM178.12 27.8872C178.12 27.5545 177.983 27.3979 177.652 27.3979H169.434C169.123 27.3979 168.947 27.5545 168.947 27.8677V29.5315H178.12V27.8872ZM168.947 31.4498V33.2115C168.947 33.5443 169.161 33.7596 169.493 33.7596H177.652C177.983 33.7596 178.139 33.5638 178.139 33.2115V31.4498H168.967H168.947ZM173.719 21.134C174.751 20.2728 175.452 19.6268 176.211 18.883H172.667V21.134H173.719Z" fill="#231815"/>
<path d="M203.748 15.2618C205.131 15.2618 205.832 15.9664 205.832 17.3367V33.603C205.832 34.9733 205.131 35.6779 203.748 35.6779H187.954C186.591 35.6779 185.89 34.9733 185.89 33.603V17.3171C185.89 15.9469 186.591 15.2422 187.954 15.2422H203.748V15.2618ZM188.363 32.7222C188.363 33.1724 188.558 33.3877 188.967 33.3877H202.755C203.145 33.3877 203.378 33.1528 203.378 32.7222V18.1784C203.378 17.7869 203.145 17.552 202.755 17.552H188.967C188.539 17.552 188.363 17.7673 188.363 18.1784V32.7418V32.7222ZM197.302 18.9809C197.302 18.4915 197.77 18.1392 198.471 18.1392C199.172 18.1392 199.639 18.4915 199.639 18.9809V21.1341H201.937C202.405 21.1341 202.736 21.6039 202.736 22.2694C202.736 22.935 202.405 23.346 201.937 23.346H199.639V30.0209C199.639 31.2933 199.367 31.8805 198.685 32.135C198.295 32.272 197.848 32.3307 196.796 32.3307C194.167 32.3307 193.602 32.1154 193.602 31.0779C193.602 30.3733 194.069 29.923 194.751 29.923C194.848 29.923 194.887 29.923 195.082 29.9426C195.511 29.9818 195.997 30.0209 196.523 30.0209C197.146 30.0209 197.322 29.8643 197.322 29.2771V23.3656H189.746C189.259 23.3656 188.948 22.9154 188.948 22.2694C188.948 21.6235 189.279 21.1733 189.746 21.1733H197.322V19.0201L197.302 18.9809ZM193.037 24.8337C194.342 26.2626 195.004 27.2218 195.004 27.6915C195.004 28.2788 194.401 28.8464 193.738 28.8464C193.31 28.8464 193.115 28.7094 192.765 28.1809C192.434 27.7111 191.81 26.9281 191.168 26.1843C190.817 25.8124 190.72 25.5775 190.72 25.2643C190.72 24.6967 191.285 24.1681 191.888 24.1681C192.258 24.1681 192.609 24.3639 193.037 24.8337Z" fill="#231815"/>
<path d="M213.914 35.3059C213.914 35.8736 213.427 36.2651 212.726 36.2651C212.025 36.2651 211.538 35.8736 211.538 35.3059V24.2072C210.35 26.0472 209.805 26.5953 209.221 26.5953C208.559 26.5953 208.013 26.0276 208.013 25.4013C208.013 25.0489 208.091 24.9119 208.52 24.2659C210.37 21.7604 211.908 18.6872 213.116 15.1834C213.33 14.557 213.661 14.2634 214.206 14.2634C214.888 14.2634 215.453 14.7528 215.453 15.3596C215.453 15.9272 214.771 17.8064 213.914 19.7247V35.2864V35.3059ZM224.43 21.2123C225.618 24.0115 227.585 27.1238 229.981 30.0796C230.292 30.4319 230.409 30.7451 230.409 31.0974C230.409 31.763 229.825 32.3502 229.163 32.3502C228.656 32.3502 228.442 32.1936 227.858 31.2932C225.91 28.3179 224.469 25.5579 223.418 22.8957V29.4532H225.638C226.183 29.4532 226.553 29.923 226.553 30.6081C226.553 31.2932 226.183 31.7434 225.638 31.7434H223.457V35.3842C223.457 35.9519 222.97 36.3434 222.249 36.3434C221.529 36.3434 221.081 35.9715 221.081 35.3842V31.7434H219.016C218.51 31.7434 218.121 31.2736 218.121 30.6081C218.121 29.9425 218.491 29.4532 219.016 29.4532H221.12V23.1306C220.165 25.8711 218.685 28.7681 216.894 31.3323C216.543 31.8217 216.407 32.0174 216.329 32.1153C216.076 32.3894 215.745 32.5655 215.414 32.5655C214.752 32.5655 214.206 32.0174 214.206 31.3911C214.206 31.0648 214.479 30.5559 215.024 29.8642C217.011 27.3587 218.841 24.1681 219.99 21.2515H215.803C215.258 21.2515 214.907 20.8013 214.907 20.0966C214.907 19.3919 215.258 18.9417 215.803 18.9417H221.061V15.1638C221.061 14.5962 221.529 14.2242 222.23 14.2242C222.931 14.2242 223.437 14.5962 223.437 15.1638V18.9221H229.104C229.65 18.9221 230 19.3723 230 20.077C230 20.7817 229.65 21.2319 229.104 21.2319H224.391L224.43 21.2123Z" fill="#231815"/>
<path d="M237.751 25.0098C237.751 26.2038 236.505 29.9817 235.414 32.1936C235.2 32.5851 235.025 32.9766 234.927 33.1136C234.655 33.5443 234.207 33.7987 233.739 33.7987C232.999 33.7987 232.337 33.1723 232.337 32.4285C232.337 32.0762 232.376 31.9979 232.804 31.254C233.739 29.5902 234.771 26.8498 235.239 24.6966C235.375 24.1094 235.784 23.7766 236.388 23.7766C237.206 23.7766 237.77 24.266 237.77 24.9902L237.751 25.0098ZM241.159 15.4379C241.159 14.8115 241.724 14.3417 242.464 14.3417C243.204 14.3417 243.769 14.8115 243.769 15.4379V19.4115H251.695C252.26 19.4115 252.669 19.9009 252.669 20.5664C252.669 21.2319 252.24 21.7213 251.695 21.7213H243.769V34.8949C243.769 35.5213 243.223 35.9911 242.464 35.9911C241.704 35.9911 241.159 35.5409 241.159 34.8949V21.7213H233.408C232.843 21.7213 232.434 21.2319 232.434 20.5664C232.434 19.9009 232.863 19.4115 233.408 19.4115H241.159V15.4183V15.4379ZM249.105 24.0702C249.157 24.1616 249.247 24.3965 249.377 24.7749C250.059 26.6345 251.442 29.5315 252.454 31.2736C252.688 31.6455 252.785 31.9391 252.785 32.2328C252.785 32.9179 252.182 33.4855 251.422 33.4855C250.565 33.4855 250.234 33.0549 248.832 30.1383C247.741 27.8677 246.748 25.2838 246.748 24.6966C246.748 24.0311 247.332 23.5221 248.034 23.5221C248.462 23.5221 248.852 23.757 249.085 24.0898L249.105 24.0702ZM254.168 16.397C254.168 17.963 252.863 19.294 251.286 19.294C249.708 19.294 248.404 17.9826 248.404 16.397C248.404 14.8115 249.708 13.5 251.305 13.5C252.902 13.5 254.149 14.8311 254.149 16.397H254.168ZM249.825 16.397C249.825 17.2191 250.487 17.8847 251.305 17.8847C252.123 17.8847 252.785 17.2191 252.785 16.397C252.785 15.5749 252.104 14.9094 251.305 14.9094C250.507 14.9094 249.825 15.5945 249.825 16.397Z" fill="#231815"/>
<path d="M275.025 23.5809C275.61 23.5809 276.077 24.1485 276.077 24.8532C276.077 25.5579 275.629 26.0668 275.025 26.0668H256.836C256.252 26.0668 255.804 25.5187 255.804 24.814C255.804 24.1094 256.252 23.5613 256.836 23.5613H275.025V23.5809Z" fill="#231815"/>
<path d="M295.532 17.1996C297.032 17.1996 297.733 17.7672 297.733 18.9613C297.733 19.8617 296.993 22.4651 296.175 24.3834C294.558 28.2787 292.455 30.843 289.067 33.0549C286.963 34.4447 284.023 35.717 282.932 35.717C282.27 35.717 281.783 35.1298 281.783 34.3272C281.783 33.9357 281.997 33.5834 282.348 33.3681C282.439 33.3159 282.763 33.1984 283.322 33.0157C286.204 32.0957 288.969 30.3536 290.702 28.4353C288.911 26.8106 287.372 25.6362 285.736 24.6379C285.347 24.3834 285.152 24.0898 285.152 23.6983C285.152 23.0719 285.697 22.5042 286.301 22.5042C286.574 22.5042 286.788 22.5825 287.333 22.8957C288.93 23.8157 290.371 24.8923 292.163 26.517C293.468 24.4813 294.383 22.4064 294.87 20.4685C294.967 20.077 294.987 19.9204 294.987 19.803C294.987 19.5485 294.851 19.4702 294.383 19.4702H287.002C285.405 21.8974 283.633 23.8157 281.705 25.1468C281.043 25.6166 280.77 25.734 280.4 25.734C279.816 25.734 279.271 25.1468 279.271 24.5204C279.271 24.2464 279.388 23.9332 279.602 23.7179C279.68 23.6396 279.959 23.4177 280.439 23.0523C282.991 21.1928 285.327 18.1783 286.34 15.4183C286.574 14.8115 286.963 14.4983 287.528 14.4983C288.268 14.4983 288.833 14.9485 288.833 15.5553C288.833 15.8881 288.619 16.4166 288.229 17.1996H295.532Z" fill="#231815"/>
<path d="M306.399 20.0574C306.399 24.951 306.185 27.0064 305.425 29.0421C304.705 31.0191 303.303 32.8787 301.667 34.1119C301.18 34.4838 300.927 34.6013 300.576 34.6013C299.875 34.6013 299.252 33.9357 299.252 33.231C299.252 32.6634 299.369 32.5068 300.109 31.9391C303.01 29.6098 303.867 26.8889 303.789 20.077V16.6319C303.789 16.0055 304.335 15.5553 305.094 15.5553C305.854 15.5553 306.399 16.0055 306.399 16.6319V20.0379V20.0574ZM312.358 30.7451C312.358 31.0974 312.397 31.254 312.553 31.254C312.767 31.254 313.527 30.7647 314.228 30.1774C316.292 28.4157 317.85 26.0864 318.61 23.5025C318.765 22.9936 319.155 22.7 319.7 22.7C320.44 22.7 321.005 23.2089 321.005 23.9136C321.005 24.3442 320.635 25.4796 320.09 26.6345C318.687 29.7272 316.156 32.4285 313.059 34.2098C312.495 34.523 312.047 34.66 311.579 34.66C310.489 34.66 309.749 33.7987 309.749 32.5264V15.9859C309.749 15.3596 310.294 14.8898 311.015 14.8898C311.793 14.8898 312.319 15.3596 312.319 15.9859V30.7255L312.358 30.7451Z" fill="#231815"/>
<path d="M336.468 15.5944C336.468 14.968 337.013 14.5178 337.792 14.5178C338.571 14.5178 339.097 14.968 339.097 15.5944V19.4506H343.089C343.654 19.4506 344.063 19.9399 344.063 20.6055C344.063 21.271 343.634 21.7604 343.089 21.7604H339.097V22.4455C339.097 26.9476 338.493 29.6685 337.013 31.7629C336.059 33.1527 334.54 34.3663 332.865 35.1493C332.281 35.4234 331.969 35.5212 331.677 35.5212C331.015 35.5212 330.489 34.9144 330.489 34.2097C330.489 33.5442 330.742 33.2702 331.58 32.8982C335.28 31.1561 336.468 28.5723 336.468 22.4651V21.7604H329.691V27.5348C329.691 28.1612 329.145 28.6114 328.386 28.6114C327.626 28.6114 327.062 28.1612 327.062 27.5348V21.7604H323.4C322.836 21.7604 322.446 21.271 322.446 20.5859C322.446 19.9008 322.836 19.4506 323.4 19.4506H327.062V15.7902C327.062 15.1638 327.626 14.694 328.386 14.694C329.145 14.694 329.691 15.1638 329.691 15.7902V19.4506H336.468V15.5944Z" fill="#231815"/>
<path d="M357.364 34.4642C357.364 35.1298 356.819 35.5604 356.04 35.5604C355.261 35.5604 354.735 35.1102 354.735 34.4642V23.5417C352.028 25.3034 347.724 27.3391 346.75 27.3391C346.127 27.3391 345.582 26.7323 345.582 26.0081C345.582 25.5579 345.796 25.2055 346.147 24.9902C346.147 24.9902 346.393 24.8989 346.887 24.7162C351.716 22.9349 356.76 19.4506 360.519 15.3204C360.772 15.0072 361.142 14.8311 361.473 14.8311C362.155 14.8311 362.797 15.4574 362.797 16.123C362.797 16.5145 362.758 16.5928 361.96 17.4149C360.83 18.6285 359.058 20.2532 357.364 21.643V34.4642Z" fill="#231815"/>
<path d="M373.061 34.6991C373.061 35.3647 372.515 35.7953 371.697 35.7953C370.879 35.7953 370.373 35.3451 370.373 34.6991V15.6336C370.373 14.9681 370.938 14.4983 371.736 14.4983C372.535 14.4983 373.061 14.9681 373.061 15.6336V21.3102C377.325 22.6413 380.188 23.6983 383.226 25.0881C383.849 25.4013 384.2 25.8319 384.2 26.3604C384.2 27.0651 383.577 27.7698 382.915 27.7698C382.584 27.7698 382.525 27.7502 381.707 27.3196C379.487 26.1842 376.06 24.814 373.061 23.7962V34.6991Z" fill="#231815"/>
</g>
</g>
<defs>
<clipPath id="clip0_652_4542">
<rect width="384" height="50" fill="white" transform="translate(0.199951)"/>
</clipPath>
<clipPath id="clip1_652_4542">
<rect width="384" height="23" fill="white" transform="translate(0.199951 13.5)"/>
</clipPath>
</defs>
</svg>
