      <svg viewBox="0 0 140 100" fill="none" xmlns="http://www.w3.org/2000/svg">
        <g clip-path="url(#clip0_652_4336)">
        <path d="M52.2042 84.5194C52.2042 87.4102 49.8566 89.7578 46.9658 89.7578H35.955C33.0642 89.7578 30.7166 87.4102 30.7166 84.5194V82.0981C30.7166 79.2073 33.0642 76.8597 35.955 76.8597H46.9658C49.8566 76.8597 52.2042 79.2073 52.2042 82.0981V84.5194Z" fill="white"/>
        <path d="M7.11144 67.5244H6.19081C3.30001 67.5244 0.952393 69.8721 0.952393 72.7629V79.9991C0.952393 82.8898 2.29652 85.2375 4.60731 85.2375H5.18731C7.68223 85.2375 7.11144 87.5851 7.11144 90.4759V93.8638C7.11144 96.7546 9.45906 99.1022 12.3499 99.1022H20.3502C23.241 99.1022 25.5886 96.7546 25.5886 93.8638V72.7629C25.5886 69.8721 23.241 67.5244 20.3502 67.5244H7.11144Z" fill="white"/>
        <path d="M104.625 34.0502C102.158 34.0502 100.031 35.7718 99.5064 38.1746L96.5788 51.6711C96.0632 54.074 93.9273 55.7956 91.46 55.7956H41.4328C38.542 55.7956 36.1943 58.1432 36.1943 61.034V65.0019C36.1943 67.8927 38.542 70.2403 41.4328 70.2403H51.2099C54.1007 70.2403 56.4483 72.5879 56.4483 75.4787V78.0841C56.4483 80.9749 58.7959 83.3226 61.6867 83.3226H110.812C113.27 83.3226 115.397 81.6102 115.931 79.1981L124.41 40.4025C124.75 38.8559 124.373 37.2356 123.378 36.0019C122.384 34.7591 120.884 34.0502 119.3 34.0502H104.625Z" fill="white"/>
        <path d="M135.908 24.3559C135.439 26.8232 133.284 28.6 130.762 28.6H107.995C106.43 28.6 104.947 27.9095 103.962 26.7035C102.968 25.4975 102.554 23.914 102.848 22.3857L106.135 5.14222C106.604 2.67492 108.768 0.888885 111.281 0.888885H134.049C135.614 0.888885 137.087 1.57936 138.081 2.7946C139.075 4.00063 139.48 5.58412 139.186 7.11238L135.899 24.3559H135.908Z" fill="white"/>
        <path d="M54.0085 40.246C54.0085 51.7908 68.9965 69.9549 70.1197 69.9549C71.2428 69.9549 86.2308 51.7908 86.2308 40.246C86.2308 31.3251 79.1787 23.9324 70.1197 23.9232C61.0606 23.9324 54.0085 31.3251 54.0085 40.246Z" fill="#393F4E"/>
        <path d="M70.1197 49.2406C75.2042 49.2406 79.326 45.1188 79.326 40.0343C79.326 34.9498 75.2042 30.8279 70.1197 30.8279C65.0352 30.8279 60.9133 34.9498 60.9133 40.0343C60.9133 45.1188 65.0352 49.2406 70.1197 49.2406Z" fill="white"/>
        <path d="M70.1197 44.6374C72.6619 44.6374 74.7228 42.5765 74.7228 40.0343C74.7228 37.492 72.6619 35.4311 70.1197 35.4311C67.5774 35.4311 65.5165 37.492 65.5165 40.0343C65.5165 42.5765 67.5774 44.6374 70.1197 44.6374Z" fill="#EA5532"/>
        </g>
        <defs>
        <clipPath id="clip0_652_4336">
        <rect width="138.335" height="98.2041" fill="white" transform="translate(0.952393 0.888885)"/>
        </clipPath>
        </defs>
        </svg>